<svg xmlns="http://www.w3.org/2000/svg" width="32" height="32" viewBox="0 0 1000 1000">
  <defs>
    <style>
      .cls-1 {
        fill: #1e293b;
        stroke: #fbfbfb;
        stroke-width: 1px;
        stroke-dasharray: 4 2;
      }

      .cls-1, .cls-2 {
        fill-rule: evenodd;
      }

      .cls-2 {
        fill: #e5e7eb;
      }
    </style>
  </defs>
  <path class="cls-1" d="M499-1.008c271.934,0,492.38,223.973,492.38,500.258S770.934,999.508,499,999.508,6.62,775.535,6.62,499.25,227.066-1.008,499-1.008Z"/>
  <path id="JV_" data-name="JV " class="cls-2" d="M338.748,568.368q0,54.012-6.131,72.809a59.193,59.193,0,0,1-21.526,30.137,56.367,56.367,0,0,1-34.236,11.339,72.5,72.5,0,0,1-29.3-6.564q-22.73-9.848-57.11-34.017l-23.274,34.912q31.331,25.961,57.142,36.255a140.248,140.248,0,0,0,52.368,10.294q35.207,0,59.977-15.964a88.626,88.626,0,0,0,35.36-42.67q10.588-26.7,10.593-95.039v-296.3H338.748V568.368ZM644.3,712.493h9.548L844.825,273.555H797.081L649.232,612.671,503.76,273.555H456.017Z"/>
</svg>
